<?xml version="1.0" standalone="no"?>
<!DOCTYPE svg PUBLIC "-//W3C//DTD SVG 20010904//EN"
 "http://www.w3.org/TR/2001/REC-SVG-20010904/DTD/svg10.dtd">
<svg version="1.0" xmlns="http://www.w3.org/2000/svg"
 width="600.000000pt" height="600.000000pt" viewBox="0 0 600.000000 600.000000"
 preserveAspectRatio="xMidYMid meet">

<g transform="translate(0.000000,600.000000) scale(0.100000,-0.100000)"
fill="#000000" stroke="none">
<path d="M2335 5470 c-648 -51 -1209 -400 -1560 -970 -370 -601 -479 -1519
-268 -2260 181 -637 604 -1148 1180 -1428 l92 -44 17 -57 c18 -65 63 -147 96
-178 l24 -22 2 46 c1 40 28 143 36 143 2 0 29 -9 62 -21 94 -32 298 -78 439
-99 175 -26 423 -34 635 -21 157 10 176 10 187 -5 10 -14 12 -14 21 2 8 14 55
26 209 55 109 21 246 53 304 72 l107 34 16 -34 c9 -19 22 -66 28 -104 l12 -69
24 27 c33 40 80 138 93 199 l12 52 117 55 c64 30 162 84 218 120 138 90 140
91 158 76 11 -9 14 -8 14 10 0 14 41 57 134 137 438 380 698 872 770 1454 23
178 24 213 16 400 -10 267 -42 467 -114 717 -79 278 -190 539 -348 823 -81
144 -98 168 -68 90 12 -30 44 -111 71 -180 70 -176 155 -472 195 -679 119
-614 64 -1176 -160 -1631 -77 -155 -213 -345 -325 -455 l-51 -49 25 89 c161
578 183 678 191 875 21 500 -162 1037 -486 1425 -62 74 -68 87 -91 175 -20 80
-24 119 -24 250 0 135 3 163 23 221 26 77 69 149 120 202 l36 37 -64 2 c-207
7 -370 -24 -488 -94 -57 -33 -181 -148 -219 -202 l-20 -29 -104 40 c-235 90
-392 118 -669 118 -275 0 -437 -28 -670 -116 l-105 -40 -30 38 c-39 49 -101
112 -145 146 l-35 28 55 50 c407 368 1084 432 1685 159 89 -40 90 -40 55 -10
-55 48 -198 143 -280 188 -333 181 -769 273 -1155 242z m-70 -1320 c162 -51
310 -152 404 -276 120 -160 170 -324 162 -541 -1 -41 -1 -42 -74 -77 -168 -81
-278 -281 -246 -449 11 -60 13 -58 -116 -122 -133 -66 -194 -80 -360 -80 -132
1 -146 3 -235 33 -284 98 -485 330 -535 617 -19 110 -19 160 0 270 55 316 298
569 614 640 97 22 294 14 386 -15z m1753 14 c366 -75 632 -401 632 -774 0
-372 -267 -699 -632 -774 -197 -40 -415 -1 -578 105 l-60 38 6 73 c15 178 -78
338 -246 423 l-73 37 6 126 c8 221 74 372 231 528 92 92 172 145 279 186 124
48 298 60 435 32z"/>
<path d="M2121 3543 c-133 -48 -197 -214 -132 -342 85 -165 328 -175 425 -17
34 55 46 149 27 209 -16 47 -75 114 -124 138 -54 28 -140 33 -196 12z m29 -93
c43 -43 11 -120 -49 -120 -64 0 -98 73 -56 120 24 26 79 26 105 0z"/>
<path d="M3960 3551 c-49 -15 -89 -41 -123 -81 -95 -111 -68 -287 56 -364 150
-93 349 2 373 177 23 166 -149 316 -306 268z m9 -107 c12 -15 21 -34 21 -44 0
-10 -9 -29 -21 -44 -41 -52 -129 -22 -129 44 0 66 88 96 129 44z"/>
</g>
</svg>
